<svg xmlns="http://www.w3.org/2000/svg" width="165.592" height="57.796" viewBox="0 0 165.592 57.796"><g transform="translate(-73.371 -318.568)"><path d="M116.273,329.283,131.592,344.6l-7.549,7.547-7.77-7.77-7.769,7.77-7.55-7.547Z" transform="translate(-17.407 -6.762)" fill="#0090b7"/><path d="M96.238,391.111,80.919,406.428l-7.548-7.548,7.769-7.77-7.769-7.771,7.548-7.549Z" transform="translate(0 -36.113)" fill="#003a7f"/><path d="M149.48,391.133,164.8,375.814l7.549,7.549-7.771,7.77,7.771,7.77-7.549,7.548Z" transform="translate(-48.032 -36.127)" fill="#003a7f"/><path d="M254.033,320.083h18.1v4H258.638v10.795h11.491v4H258.638v14.048h-4.6Z" transform="translate(-114.015 -0.956)" fill="#0090b7"/><path d="M319.77,320.083h19.074v4H324.375v10.283h11.769v4H324.375v10.561h15.258v4H319.77Z" transform="translate(-155.5 -0.956)" fill="#0090b7"/><path d="M401.341,343.483H388.966l-3.257,9.443h-4.746l11.817-32.843h4.838l11.816,32.843h-4.791ZM395.152,324.6s-.744,2.977-1.3,4.652l-3.675,10.422h9.955L396.5,329.247c-.558-1.675-1.254-4.652-1.254-4.652Z" transform="translate(-194.119 -0.956)" fill="#0090b7"/><path d="M467.1,344.712a12.958,12.958,0,0,0,8.373,3.536c3.072,0,5.677-1.721,5.677-4.838,0-7.118-15.911-5.581-15.911-15.676,0-5.118,4.419-9.165,10.608-9.165a13.453,13.453,0,0,1,9.3,3.3l-2.092,3.815a11.576,11.576,0,0,0-7.21-2.838c-3.49,0-5.955,2.186-5.955,4.792,0,6.791,15.909,4.977,15.909,15.63,0,5.07-3.907,9.258-10.421,9.258a15.363,15.363,0,0,1-10.884-4.327Z" transform="translate(-246.834)" fill="#0090b7"/><path d="M249.264,438.69H252v.6H249.96v1.629H251.7v.6H249.96v2.122h-.7Z" transform="translate(-111.005 -75.808)" fill="#003a7f"/><path d="M259.191,438.69h2.882v.6h-2.185v1.552h1.778v.6h-1.778v1.595h2.306v.6h-3Z" transform="translate(-117.27 -75.808)" fill="#003a7f"/><path d="M270.115,438.69h1.643a2.48,2.48,0,1,1,0,4.96h-1.643Zm1.594,4.356a1.876,1.876,0,0,0,0-3.752h-.9v3.752Z" transform="translate(-124.164 -75.808)" fill="#003a7f"/><path d="M284.213,438.69H287.1v.6H284.91v1.552h1.778v.6H284.91v1.595h2.306v.6h-3Z" transform="translate(-133.061 -75.808)" fill="#003a7f"/><path d="M295.133,438.69h1.518a2.492,2.492,0,0,1,.927.113,1.473,1.473,0,0,1-.056,2.683v.014a1.417,1.417,0,0,1,.147.225l1.054,1.925h-.787l-1.045-1.975h-1.062v1.975h-.7Zm1.695,2.382a.825.825,0,0,0,.877-.9.813.813,0,0,0-.394-.766,1.378,1.378,0,0,0-.681-.111h-.8v1.778Z" transform="translate(-139.952 -75.808)" fill="#003a7f"/><path d="M308.753,442.224h-1.871l-.49,1.426h-.717l1.784-4.96h.73l1.786,4.96h-.725Zm-.936-2.852s-.113.449-.2.7l-.554,1.574h1.5l-.549-1.574c-.083-.253-.189-.7-.189-.7Z" transform="translate(-146.606 -75.808)" fill="#003a7f"/><path d="M318.467,439.295h-1.7v-.6h4.095v.6h-1.7v4.356h-.695Z" transform="translate(-153.606 -75.808)" fill="#003a7f"/><rect width="0.695" height="4.961" transform="translate(167.969 362.882)" fill="#003a7f"/><path d="M336.978,438.46a2.5,2.5,0,0,1,2.544,2.53,2.547,2.547,0,1,1-5.094,0,2.506,2.506,0,0,1,2.55-2.53m0,4.49a1.873,1.873,0,0,0,1.828-1.96,1.832,1.832,0,1,0-3.661,0,1.879,1.879,0,0,0,1.833,1.96" transform="translate(-164.751 -75.663)" fill="#003a7f"/><path d="M350.988,438.69h.688l2.208,3.225c.182.267.414.717.414.717h.014s-.048-.442-.048-.717V438.69h.7v4.96h-.683l-2.213-3.218c-.182-.273-.414-.724-.414-.724h-.016s.051.444.051.724v3.218h-.7Z" transform="translate(-175.202 -75.808)" fill="#003a7f"/><path d="M371.95,438.46a2.5,2.5,0,0,1,2.542,2.53,2.547,2.547,0,1,1-5.093,0,2.507,2.507,0,0,1,2.551-2.53m0,4.49a1.872,1.872,0,0,0,1.825-1.96,1.831,1.831,0,1,0-3.66,0,1.879,1.879,0,0,0,1.835,1.96" transform="translate(-186.821 -75.663)" fill="#003a7f"/><path d="M385.959,438.69h2.732v.6h-2.037v1.629h1.736v.6h-1.736v2.122h-.7Z" transform="translate(-197.272 -75.808)" fill="#003a7f"/><path d="M400.787,438.69h2.879v.6h-2.185v1.552h1.778v.6h-1.778v1.595h2.3v.6h-3Z" transform="translate(-206.63 -75.808)" fill="#003a7f"/><path d="M411.514,438.69h.7v3.2a1.259,1.259,0,0,0,2.516-.014v-3.19h.7v3.2a1.957,1.957,0,0,1-3.907,0Z" transform="translate(-213.4 -75.808)" fill="#003a7f"/><path d="M425.576,438.69h1.518a2.493,2.493,0,0,1,.928.113,1.473,1.473,0,0,1-.056,2.683v.014a1.44,1.44,0,0,1,.147.225l1.054,1.925h-.787l-1.046-1.975h-1.061v1.975h-.7Zm1.695,2.382a.825.825,0,0,0,.877-.9.813.813,0,0,0-.393-.766,1.37,1.37,0,0,0-.681-.111h-.8v1.778Z" transform="translate(-222.274 -75.808)" fill="#003a7f"/><path d="M439.428,438.46a2.5,2.5,0,0,1,2.544,2.53,2.548,2.548,0,1,1-5.094,0,2.507,2.507,0,0,1,2.551-2.53m0,4.49a1.873,1.873,0,0,0,1.827-1.96,1.831,1.831,0,1,0-3.66,0,1.878,1.878,0,0,0,1.833,1.96" transform="translate(-229.406 -75.663)" fill="#003a7f"/><rect width="2.052" height="0.605" transform="translate(213.503 365.538)" fill="#003a7f"/><path d="M463.417,442.224h-1.869l-.493,1.426h-.715l1.783-4.96h.731l1.785,4.96h-.724Zm-.934-2.852s-.114.449-.2.7l-.554,1.574h1.5l-.549-1.574c-.083-.253-.189-.7-.189-.7Z" transform="translate(-244.213 -75.808)" fill="#003a7f"/><path d="M473.349,442.408a1.954,1.954,0,0,0,1.264.535.765.765,0,0,0,.857-.731c0-1.075-2.4-.842-2.4-2.367a1.469,1.469,0,0,1,1.6-1.385,2.026,2.026,0,0,1,1.4.5l-.316.576a1.745,1.745,0,0,0-1.088-.429.812.812,0,0,0-.9.724c0,1.025,2.4.752,2.4,2.36a1.43,1.43,0,0,1-1.574,1.4,2.319,2.319,0,0,1-1.643-.654Z" transform="translate(-252.175 -75.663)" fill="#003a7f"/><rect width="0.697" height="4.961" transform="translate(224.997 362.882)" fill="#003a7f"/><path d="M491.333,442.224h-1.869l-.491,1.426h-.718l1.785-4.96h.732l1.785,4.96h-.724Zm-.935-2.852s-.112.449-.2.7l-.555,1.574h1.5l-.549-1.574c-.083-.253-.189-.7-.189-.7Z" transform="translate(-261.83 -75.808)" fill="#003a7f"/><path d="M501.9,438.69h.688l2.206,3.225c.183.267.414.717.414.717h.014s-.049-.442-.049-.717V438.69h.7v4.96h-.682l-2.213-3.218c-.183-.273-.415-.724-.415-.724h-.014s.049.444.049.724v3.218h-.7Z" transform="translate(-270.442 -75.808)" fill="#003a7f"/><path d="M291.966,465.277a1.956,1.956,0,0,0,1.265.535.766.766,0,0,0,.857-.731c0-1.075-2.4-.842-2.4-2.367a1.47,1.47,0,0,1,1.6-1.385,2.029,2.029,0,0,1,1.406.5l-.316.576a1.75,1.75,0,0,0-1.09-.428.811.811,0,0,0-.9.724c0,1.025,2.4.752,2.4,2.361a1.43,1.43,0,0,1-1.573,1.4,2.316,2.316,0,0,1-1.643-.654Z" transform="translate(-137.706 -90.095)" fill="#003a7f"/><path d="M302.973,462.163h-1.7v-.6h4.095v.6h-1.7v4.357h-.7Z" transform="translate(-143.828 -90.241)" fill="#003a7f"/><path d="M315.751,461.329a2.5,2.5,0,0,1,2.544,2.53,2.547,2.547,0,1,1-5.094,0,2.506,2.506,0,0,1,2.55-2.53m0,4.49a1.873,1.873,0,0,0,1.826-1.96,1.831,1.831,0,1,0-3.66,0,1.88,1.88,0,0,0,1.834,1.96" transform="translate(-151.355 -90.095)" fill="#003a7f"/><path d="M331.369,461.329a2.552,2.552,0,0,1,1.8.654l-.343.519a2.269,2.269,0,0,0-1.433-.54,1.8,1.8,0,0,0-1.835,1.9,1.861,1.861,0,0,0,1.841,1.96,2.25,2.25,0,0,0,1.534-.646l.371.5a2.656,2.656,0,0,1-1.926.788,2.566,2.566,0,0,1-.013-5.131" transform="translate(-161.228 -90.095)" fill="#003a7f"/><path d="M343.52,461.56h.7v2.087h.738l1.252-2.087h.764l-1.439,2.354v.014l1.53,2.593h-.788l-1.32-2.276h-.738v2.276h-.7Z" transform="translate(-170.489 -90.241)" fill="#003a7f"/><path d="M360.287,461.56h2.881v.6h-2.184v1.553h1.778v.6h-1.778v1.594h2.3v.6h-3Z" transform="translate(-181.071 -90.241)" fill="#003a7f"/><path d="M371.363,463.962l-1.468-2.4h.8l.78,1.341c.153.267.316.591.316.591h.013a6.5,6.5,0,0,1,.3-.591l.781-1.341h.8l-1.47,2.4,1.567,2.558H373L372.1,465c-.161-.281-.315-.57-.315-.57h-.014s-.135.3-.3.57l-.9,1.524h-.78Z" transform="translate(-187.071 -90.241)" fill="#003a7f"/><path d="M384.265,461.1a2.553,2.553,0,0,1,1.805.654l-.344.52a2.266,2.266,0,0,0-1.434-.54,1.8,1.8,0,0,0-1.833,1.9,1.861,1.861,0,0,0,1.84,1.96,2.247,2.247,0,0,0,1.532-.646l.373.5a2.662,2.662,0,0,1-1.927.788,2.565,2.565,0,0,1-.012-5.13" transform="translate(-194.611 -89.95)" fill="#003a7f"/><path d="M396.381,461.56h.7v2.178h2.572V461.56h.7v4.96h-.7v-2.178h-2.572v2.178h-.7Z" transform="translate(-203.849 -90.241)" fill="#003a7f"/><path d="M412.19,465.094h-1.87l-.491,1.426h-.717l1.785-4.96h.73l1.785,4.96h-.724Zm-.934-2.852s-.113.449-.2.7l-.553,1.574h1.5l-.547-1.574c-.084-.253-.19-.7-.19-.7Z" transform="translate(-211.884 -90.241)" fill="#003a7f"/><path d="M422.754,461.56h.689l2.206,3.225c.182.268.414.717.414.717h.014s-.049-.442-.049-.717V461.56h.7v4.96h-.682L423.83,463.3c-.182-.274-.414-.723-.414-.723H423.4s.05.443.05.723v3.218h-.7Z" transform="translate(-220.493 -90.241)" fill="#003a7f"/><path d="M438.815,461.329a2.689,2.689,0,0,1,1.8.6l-.35.521a2.287,2.287,0,0,0-1.4-.485,1.93,1.93,0,0,0-.042,3.857,2.026,2.026,0,0,0,1.406-.617v-.717h-.808v-.6h1.441v2.494h-.611v-.31c0-.1.006-.21.006-.21h-.014a2.133,2.133,0,0,1-1.525.605,2.456,2.456,0,0,1-2.438-2.573,2.5,2.5,0,0,1,2.53-2.558" transform="translate(-229.032 -90.095)" fill="#003a7f"/><path d="M451.664,461.56h2.881v.6h-2.184v1.553h1.778v.6h-1.778v1.594h2.3v.6h-3Z" transform="translate(-238.738 -90.241)" fill="#003a7f"/><path d="M461.95,465.277a1.959,1.959,0,0,0,1.266.535.765.765,0,0,0,.857-.731c0-1.075-2.4-.842-2.4-2.367a1.47,1.47,0,0,1,1.6-1.385,2.032,2.032,0,0,1,1.406.5l-.317.576a1.746,1.746,0,0,0-1.089-.428.811.811,0,0,0-.9.724c0,1.025,2.4.752,2.4,2.361a1.43,1.43,0,0,1-1.574,1.4,2.316,2.316,0,0,1-1.643-.654Z" transform="translate(-244.981 -90.095)" fill="#003a7f"/></g></svg>